<svg width="35" height="35" viewBox="0 0 35 35" fill="none" xmlns="http://www.w3.org/2000/svg">
<path d="M27.2137 0H7.78633C3.48606 0 0 3.48606 0 7.78633V27.2137C0 31.5139 3.48606 35 7.78633 35H27.2137C31.5139 35 35 31.5139 35 27.2137V7.78633C35 3.48606 31.5139 0 27.2137 0Z" fill="url(#paint0_linear)"/>
<path d="M16.4312 30.6413C15.3871 30.268 15.1631 29.7605 14.7349 26.7867C14.2367 23.3298 14.1282 21.1902 14.4164 20.5123C14.7991 19.614 15.8374 19.1042 17.2899 19.0983C18.7307 19.0925 19.7784 19.607 20.1634 20.5123C20.4527 21.189 20.3442 23.3298 19.8461 26.7867C19.5077 29.2017 19.3211 29.8118 18.8544 30.2225C18.2127 30.7907 17.3027 30.9482 16.4394 30.6425L16.4312 30.6413ZM11.9711 27.0947C8.36607 25.3213 6.05607 22.3207 5.21607 18.3283C5.00607 17.2982 4.97107 14.84 5.1694 13.895C5.6944 11.3575 6.69773 9.373 8.36607 7.61833C10.7694 5.08433 13.8611 3.745 17.3027 3.745C20.7094 3.745 23.7894 5.05983 26.1344 7.518C27.9194 9.373 28.9227 11.3365 29.4361 13.923C29.6111 14.784 29.6111 17.1313 29.4477 18.0997C28.9111 21.161 27.2077 23.9493 24.7227 25.823C23.8361 26.4927 21.6661 27.6617 21.3161 27.6617C21.1877 27.6617 21.1761 27.5287 21.2344 26.9908C21.3394 26.1275 21.4444 25.9478 21.9344 25.7425C22.7161 25.4158 24.0461 24.4685 24.8627 23.6495C26.2744 22.2495 27.3127 20.4178 27.7911 18.4928C28.0944 17.2912 28.0594 14.6195 27.7211 13.3828C26.6594 9.45116 23.4511 6.3945 19.5194 5.57783C18.3761 5.3445 16.2994 5.3445 15.1444 5.57783C11.1661 6.3945 7.87607 9.60283 6.87273 13.6395C6.6044 14.7362 6.6044 17.4078 6.87273 18.5045C7.53773 21.1762 9.2644 23.6262 11.5277 25.0845C11.9711 25.3762 12.5077 25.6795 12.7294 25.7728C13.2194 25.9828 13.3244 26.1578 13.4177 27.0212C13.4761 27.5462 13.4644 27.6978 13.3361 27.6978C13.2544 27.6978 12.6594 27.4412 12.0294 27.1378L11.9711 27.0947ZM12.0177 22.3487C10.8044 21.3803 9.73107 19.663 9.28774 17.9783C9.0194 16.961 9.0194 15.0267 9.2994 14.0117C10.0344 11.2723 12.0527 9.149 14.8527 8.1515C15.8094 7.81316 17.9327 7.73733 19.1111 7.9975C23.1711 8.90166 26.0527 12.9675 25.4927 17.0007C25.2711 18.6258 24.7111 19.9605 23.7194 21.2007C23.2294 21.8272 22.0394 22.8783 21.8294 22.8783C21.7944 22.8783 21.7594 22.4817 21.7594 21.9987V21.1167L22.3661 20.3933C24.6527 17.654 24.4894 13.8273 21.9927 11.3167C21.0244 10.339 19.9044 9.765 18.4577 9.50016C17.5244 9.3275 17.3261 9.3275 16.3461 9.4885C14.8586 9.73116 13.7059 10.3075 12.6827 11.3202C10.1744 13.8052 10.0111 17.6517 12.2977 20.3933L12.8997 21.1167V22.0033C12.8997 22.4933 12.8612 22.89 12.8134 22.89C12.7667 22.89 12.4284 22.6567 12.0667 22.365L12.0177 22.3487ZM16.0661 17.5852C15.0277 17.1022 14.4677 16.191 14.4561 15.0033C14.4561 13.9358 15.0511 13.0048 16.0777 12.46C16.7311 12.117 17.8861 12.117 18.5394 12.4623C19.2511 12.8322 19.8344 13.5497 20.0561 14.2987C20.7327 16.5993 18.2944 18.6153 16.0894 17.5852H16.0661Z" fill="white"/>
<path d="M17.4868 18.0378C19.0938 18.0378 20.3965 16.7351 20.3965 15.1282C20.3965 13.5212 19.0938 12.2185 17.4868 12.2185C15.8799 12.2185 14.5771 13.5212 14.5771 15.1282C14.5771 16.7351 15.8799 18.0378 17.4868 18.0378Z" fill="white"/>
<path d="M17.7656 19.1648C17.9674 19.1916 18.3687 19.2441 18.7397 19.3631C19.1131 19.4798 19.4514 19.663 19.7151 19.8508C19.9717 20.0375 20.1584 20.2311 20.2751 20.4668C20.3917 20.7025 20.4501 20.9825 20.4851 21.441C20.5084 21.9006 20.5084 22.5376 20.4034 23.7276C20.2984 24.9141 20.0884 26.6536 19.9251 27.7678C19.7617 28.8878 19.6451 29.3778 19.4934 29.7394C19.3417 30.1128 19.1434 30.3578 18.9217 30.5328C18.7001 30.7078 18.4434 30.8128 18.1984 30.8711C17.9534 30.9294 17.7317 30.9294 17.5217 30.9294C17.3117 30.9294 17.1134 30.9294 16.8451 30.8711C16.5767 30.8128 16.2267 30.7078 15.9701 30.4978C15.7017 30.2878 15.5267 29.9844 15.3867 29.5878C15.2467 29.1911 15.1417 28.7128 15.0017 27.7561C14.8617 26.7995 14.6751 25.3761 14.5584 24.2911C14.4417 23.2061 14.3951 22.4595 14.3857 21.9578C14.3741 21.4561 14.3974 21.2076 14.4557 20.9661C14.5141 20.7328 14.6074 20.5111 14.7357 20.3245C14.8641 20.1378 15.0321 19.9745 15.2024 19.8461C15.3692 19.7178 15.5407 19.6245 15.7461 19.5521C15.9491 19.4705 16.1929 19.4005 16.4927 19.3421C16.7961 19.2838 17.1461 19.2255 17.3257 19.2021C17.5054 19.1753 17.5054 19.1753 17.7061 19.2021L17.7656 19.1648Z" fill="white"/>
<defs>
<linearGradient id="paint0_linear" x1="17.4638" y1="35.4445" x2="17.1675" y2="-1.64064e-06" gradientUnits="userSpaceOnUse">
<stop stop-color="#822CBE"/>
<stop offset="1" stop-color="#D772FB"/>
</linearGradient>
</defs>
</svg>
