<svg width="32" height="32" viewBox="0 0 32 32" fill="none" xmlns="http://www.w3.org/2000/svg">
<g clip-path="url(#clip0)">
<path d="M26.4834 21.205C26.9274 20.776 26.9274 20.062 26.4834 19.618C26.0544 19.189 25.3404 19.189 24.9124 19.618L16.8654 27.665L16.8654 1.111C16.8644 0.491999 16.3724 -4.56522e-07 15.7534 -4.83579e-07C15.1344 -5.10636e-07 14.6264 0.491999 14.6264 1.111L14.6264 27.665L6.59441 19.618C6.15041 19.189 5.4354 19.189 5.00741 19.618C4.56341 20.062 4.56341 20.777 5.00741 21.205L14.9594 31.157C15.3884 31.601 16.1024 31.601 16.5304 31.157L26.4834 21.205Z" fill="white"/>
</g>
<defs>
<clipPath id="clip0">
<rect width="31.49" height="31.49" fill="white" transform="translate(31.4902) rotate(90)"/>
</clipPath>
</defs>
</svg>
