<svg width="135" height="14" viewBox="0 0 135 14" fill="none" xmlns="http://www.w3.org/2000/svg">
<path d="M11.3027 9.43164C11.3027 10.6445 10.8516 11.5732 9.94922 12.2178C9.05273 12.8564 7.73438 13.1758 5.99414 13.1758C4.40625 13.1758 3.16113 12.8945 2.25879 12.332C1.35645 11.7695 0.776367 10.917 0.518555 9.77441L3.02344 9.36133C3.19336 10.0176 3.52441 10.4951 4.0166 10.7939C4.50879 11.0869 5.19141 11.2334 6.06445 11.2334C7.875 11.2334 8.78027 10.6826 8.78027 9.58105C8.78027 9.22949 8.6748 8.93945 8.46387 8.71094C8.25879 8.48242 7.96582 8.29199 7.58496 8.13965C7.20996 7.9873 6.48633 7.80273 5.41406 7.58594C4.48828 7.36914 3.84375 7.19629 3.48047 7.06738C3.11719 6.93262 2.78906 6.77734 2.49609 6.60156C2.20312 6.41992 1.9541 6.20312 1.74902 5.95117C1.54395 5.69922 1.38281 5.40332 1.26562 5.06348C1.1543 4.72363 1.09863 4.33398 1.09863 3.89453C1.09863 2.77539 1.51758 1.91992 2.35547 1.32812C3.19922 0.730469 4.42383 0.431641 6.0293 0.431641C7.56445 0.431641 8.71582 0.671875 9.4834 1.15234C10.2568 1.63281 10.7549 2.42676 10.9775 3.53418L8.46387 3.87695C8.33496 3.34375 8.07129 2.94238 7.67285 2.67285C7.28027 2.40332 6.71484 2.26855 5.97656 2.26855C4.40625 2.26855 3.62109 2.76074 3.62109 3.74512C3.62109 4.06738 3.70312 4.33105 3.86719 4.53613C4.03711 4.74121 4.28613 4.91699 4.61426 5.06348C4.94238 5.2041 5.60742 5.38281 6.60938 5.59961C7.79883 5.85156 8.64844 6.08594 9.1582 6.30273C9.67383 6.51367 10.0811 6.7627 10.3799 7.0498C10.6787 7.33105 10.9072 7.6709 11.0654 8.06934C11.2236 8.46191 11.3027 8.91602 11.3027 9.43164ZM32.9365 4.53613C32.9365 5.33301 32.7548 6.04492 32.3916 6.67188C32.0283 7.29883 31.5068 7.78516 30.8271 8.13086C30.1533 8.4707 29.3505 8.64062 28.4189 8.64062H25.3427V13H22.75V0.616211H28.3134C29.7959 0.616211 30.9355 0.958984 31.7324 1.64453C32.5351 2.32422 32.9365 3.28809 32.9365 4.53613ZM30.3261 4.58008C30.3261 3.2793 29.5586 2.62891 28.0234 2.62891H25.3427V6.64551H28.0937C28.8086 6.64551 29.3593 6.46973 29.7461 6.11816C30.1328 5.76074 30.3261 5.24805 30.3261 4.58008ZM51.7138 13L50.6152 9.83594H45.8954L44.7968 13H42.204L46.7216 0.616211H49.7802L54.2802 13H51.7138ZM48.2509 2.52344L48.1982 2.7168C48.1396 2.92773 48.0693 3.16797 47.9872 3.4375C47.9052 3.70703 47.4013 5.18945 46.4755 7.88477H50.0351L48.8134 4.3252L48.4355 3.12988L48.2509 2.52344ZM69.7616 2.62012V13H67.1688V2.62012H63.1698V0.616211H73.7694V2.62012H69.7616ZM84.7157 13V0.616211H87.3084V13H84.7157ZM104.416 13.1758C102.711 13.1758 101.404 12.7598 100.496 11.9277C99.5936 11.0957 99.1424 9.90625 99.1424 8.35938V0.616211H101.735V8.15723C101.735 9.13574 101.967 9.87988 102.429 10.3896C102.898 10.8936 103.584 11.1455 104.486 11.1455C105.412 11.1455 106.124 10.8818 106.622 10.3545C107.12 9.82129 107.369 9.05957 107.369 8.06934V0.616211H109.962V8.22754C109.962 9.79785 109.475 11.0166 108.503 11.8838C107.536 12.7451 106.174 13.1758 104.416 13.1758ZM132.096 13V5.49414C132.096 5.32422 132.096 5.1543 132.096 4.98438C132.102 4.81445 132.132 4.08496 132.184 2.7959C131.768 4.37207 131.461 5.4707 131.261 6.0918L129.029 13H127.183L124.951 6.0918L124.011 2.7959C124.081 4.15527 124.116 5.05469 124.116 5.49414V13H121.813V0.616211H125.285L127.5 7.54199L127.693 8.20996L128.115 9.87109L128.669 7.88477L130.945 0.616211H134.399V13H132.096Z" fill="white"/>
</svg>
