<svg width="35" height="35" viewBox="0 0 35 35" fill="none" xmlns="http://www.w3.org/2000/svg">
<path d="M17.4999 0C7.83518 0 0 7.83515 0 17.5001C0 27.1655 7.83518 35 17.4999 35C27.1657 35 35 27.1655 35 17.5001C35 7.83578 27.1659 0 17.4999 0ZM25.5252 25.2402C25.2118 25.7543 24.5389 25.9173 24.0248 25.6017C19.916 23.0919 14.7436 22.5235 8.65204 23.9153C8.06504 24.049 7.47992 23.6812 7.34618 23.094C7.21181 22.5068 7.57814 21.9216 8.1666 21.7879C14.8328 20.2649 20.5509 20.9206 25.1637 23.7397C25.6778 24.0553 25.8408 24.7261 25.5252 25.2402ZM27.6672 20.4751C27.2722 21.1171 26.4322 21.3198 25.7906 20.9248C21.0867 18.0334 13.9162 17.196 8.35238 18.885C7.6308 19.103 6.86868 18.6963 6.64968 17.9759C6.43235 17.2543 6.83922 16.4937 7.55954 16.2742C13.915 14.3458 21.816 15.2799 27.2179 18.5995C27.8594 18.9945 28.0621 19.8344 27.6672 20.4751ZM27.8511 15.5132C22.2109 12.1631 12.9054 11.855 7.52046 13.4894C6.65574 13.7517 5.74128 13.2635 5.47923 12.3988C5.21718 11.5336 5.70492 10.6198 6.57027 10.3569C12.7519 8.48026 23.028 8.84284 29.5216 12.6978C30.3011 13.1595 30.556 14.164 30.0942 14.9408C29.6344 15.7186 28.6264 15.975 27.8511 15.5132Z" fill="#1ED760"/>
</svg>
